<svg width="84" height="15" viewBox="0 0 84 15" fill="none" xmlns="http://www.w3.org/2000/svg">
<g clip-path="url(#clip0_484_19)">
<path fill-rule="evenodd" clip-rule="evenodd" d="M2.89735 14.6671C2.85877 14.5734 2.84461 14.4655 2.86463 14.3517L3.69471 9.6217L0.171762 6.26575C-0.15734 5.95178 0.0135587 5.37756 0.454477 5.31555L5.35243 4.61975L7.53651 0.292603C7.73377 -0.0975343 8.26649 -0.0975343 8.46375 0.292603L10.6473 4.61975L15.5453 5.31555C15.7704 5.34729 15.9252 5.51184 15.9789 5.70764C16.0306 5.89563 15.9891 6.11194 15.8275 6.26575L12.3056 9.6217L13.1356 14.3517C13.2138 14.7946 12.7758 15.1417 12.3895 14.9435L7.99842 12.6876L3.61073 14.9435C3.48817 15.0065 3.36073 15.0143 3.24598 14.9821C3.09168 14.9386 2.96082 14.8219 2.89735 14.6671ZM20.6107 14.9435C20.2245 15.1417 19.7865 14.7946 19.8646 14.3517L20.6947 9.6217L17.1718 6.26575C17.0731 6.17151 17.0194 6.05383 17.0043 5.93323C16.9696 5.65295 17.1459 5.35901 17.4545 5.31555L22.3524 4.61975L24.5365 0.292603C24.7338 -0.0975343 25.2665 -0.0975343 25.4638 0.292603L27.6473 4.61975L32.5453 5.31555C32.6146 5.32532 32.6771 5.34778 32.7328 5.38C32.7489 5.38928 32.7645 5.39954 32.7792 5.41028C32.8373 5.45325 32.8851 5.50793 32.9213 5.56946C32.9667 5.64758 32.9935 5.73694 32.9989 5.82825C33.0082 5.98303 32.9555 6.14417 32.8275 6.26575L29.3056 9.6217L30.1356 14.3517C30.1561 14.4684 30.141 14.5782 30.1 14.674C30.0673 14.7506 30.018 14.8175 29.9574 14.8707C29.9115 14.9113 29.8588 14.9435 29.8021 14.9659C29.6757 15.0157 29.5292 15.0153 29.3895 14.9435L24.9984 12.6876L20.6107 14.9435ZM36.8646 14.3517C36.7865 14.7946 37.2245 15.1417 37.6107 14.9435L41.9984 12.6876L46.3895 14.9435C46.5433 15.0226 46.705 15.0148 46.8392 14.9493C47.0424 14.8502 47.1825 14.6183 47.1356 14.3517L46.3056 9.6217L49.8275 6.26575C50.1576 5.95178 49.9867 5.37756 49.5453 5.31555L44.6473 4.61975L42.4638 0.292603C42.2665 -0.0975343 41.7338 -0.0975343 41.5365 0.292603L39.3524 4.61975L34.4545 5.31555C34.0136 5.37756 33.8427 5.95178 34.1718 6.26575L37.6947 9.6217L36.8646 14.3517ZM54.6107 14.9435C54.495 15.0031 54.3744 15.0133 54.2645 14.9869C54.0082 14.9249 53.8099 14.6617 53.8646 14.3517L54.6947 9.6217L51.1718 6.26575C50.8427 5.95178 51.0136 5.37756 51.4545 5.31555L56.3524 4.61975L58.5365 0.292603C58.7338 -0.0975343 59.2665 -0.0975343 59.4638 0.292603L61.6473 4.61975L66.5453 5.31555C66.9867 5.37756 67.1576 5.95178 66.8275 6.26575L63.3056 9.6217L64.1356 14.3517C64.1835 14.6237 64.037 14.8595 63.827 14.9552C63.6952 15.0153 63.5385 15.0201 63.3895 14.9435L58.9984 12.6876L54.6107 14.9435ZM70.8646 14.3517C70.7865 14.7946 71.2245 15.1417 71.6107 14.9435L75.9984 12.6876L80.3895 14.9435C80.7758 15.1417 81.2138 14.7946 81.1356 14.3517L80.3056 9.6217L83.8275 6.26575C84.1576 5.95178 83.9867 5.37756 83.5453 5.31555L78.6473 4.61975L76.4638 0.292603C76.2665 -0.0975343 75.7338 -0.0975343 75.5365 0.292603L73.3524 4.61975L68.4545 5.31555C68.0136 5.37756 67.8427 5.95178 68.1718 6.26575L71.6947 9.6217L70.8646 14.3517Z" fill="black"/>
</g>
<defs>
<clipPath id="clip0_484_19">
<rect width="84" height="15" fill="white"/>
</clipPath>
</defs>
</svg>
